<svg xmlns="http://www.w3.org/2000/svg" width="357.294" height="28.079" viewBox="0 0 357.294 28.079">
  <g id="ansell_safeconnect_logo" transform="translate(-38.6 -52.86)">
    <g id="Group_22150" data-name="Group 22150" transform="translate(38.6 52.86)">
      <path id="Path_16618" data-name="Path 16618" d="M51.833,57.925l5.925,13.307H45.868l5.965-13.307ZM50.489,54.5,38.6,80.777h3.019l3.094-6.9h14.2l3.054,6.9h3.168L53.246,54.5Z" transform="translate(-38.6 -53.562)" fill="#046cb5"/>
      <g id="Group_22149" data-name="Group 22149" transform="translate(31.201)">
        <path id="Path_16619" data-name="Path 16619" d="M96.031,85.7H93.16V66.432h2.871v3.357a7.3,7.3,0,0,1,6.594-3.769c4.661,0,7.377,3.134,7.377,7.715V85.7h-2.871V74.444c0-3.58-1.939-5.816-5.33-5.816s-5.776,2.425-5.776,6.039V85.7Z" transform="translate(-93.16 -58.494)" fill="#046cb5"/>
        <path id="Path_16620" data-name="Path 16620" d="M138.488,86.135A13.284,13.284,0,0,1,130.51,83.3l1.453-2.053a11.254,11.254,0,0,0,6.674,2.459c2.276,0,3.986-1.189,3.986-3.054v-.074c0-1.939-2.27-2.688-4.809-3.391-3.019-.858-6.371-1.9-6.371-5.439v-.074c0-3.317,2.756-5.519,6.559-5.519a13.158,13.158,0,0,1,6.931,2.122l-1.3,2.162a10.9,10.9,0,0,0-5.7-1.864c-2.27,0-3.729,1.189-3.729,2.8v.074c0,1.824,2.385,2.533,4.958,3.317,2.979.892,6.188,2.047,6.188,5.519v.074c0,3.654-3.019,5.776-6.857,5.776" transform="translate(-109.151 -58.554)" fill="#046cb5"/>
        <path id="Path_16621" data-name="Path 16621" d="M173.373,83.657a7.958,7.958,0,0,0,6.073-2.722l1.79,1.6A9.942,9.942,0,0,1,173.3,86.15c-5.3,0-9.619-4.066-9.619-10.065,0-5.593,3.917-10.065,9.241-10.065,5.7,0,8.984,4.546,8.984,10.214a8.532,8.532,0,0,1-.034.9h-15.28c.412,4.175,3.391,6.525,6.782,6.525M179,75.01c-.3-3.506-2.31-6.559-6.148-6.559-3.357,0-5.89,2.8-6.262,6.559Z" transform="translate(-123.352 -58.494)" fill="#046cb5"/>
        <rect id="Rectangle_7619" data-name="Rectangle 7619" width="2.871" height="27.21" transform="translate(63.849)" fill="#046cb5"/>
        <rect id="Rectangle_7620" data-name="Rectangle 7620" width="2.871" height="27.21" transform="translate(73.657)" fill="#046cb5"/>
      </g>
    </g>
    <g id="Group_22151" data-name="Group 22151" transform="translate(152.997 53.478)">
      <path id="Path_16622" data-name="Path 16622" d="M249.906,81.373a16.324,16.324,0,0,1-11.266-4.249l3.454-4.135a12.4,12.4,0,0,0,7.926,3.225c2.682,0,3.832-.835,3.832-2.5v-.074a2.124,2.124,0,0,0-1.064-1.841,16.467,16.467,0,0,0-4.289-1.538,18.663,18.663,0,0,1-6.411-2.579,6.64,6.64,0,0,1-2.39-5.536v-.074a7.234,7.234,0,0,1,2.6-5.8,10.019,10.019,0,0,1,6.7-2.2,15.293,15.293,0,0,1,9.859,3.374l-3.037,4.4a12.379,12.379,0,0,0-6.9-2.619,4.258,4.258,0,0,0-2.522.646,1.97,1.97,0,0,0-.892,1.67V61.6a2.1,2.1,0,0,0,1.1,1.933,21.547,21.547,0,0,0,4.626,1.555,15.284,15.284,0,0,1,6.222,2.768,6.511,6.511,0,0,1,2.2,5.2v.074a7.373,7.373,0,0,1-2.676,6.05,10.856,10.856,0,0,1-7.074,2.179Z" transform="translate(-238.64 -53.991)" fill="#06af9a"/>
      <path id="Path_16623" data-name="Path 16623" d="M276.9,86.461l8.292-19.621h5.2l8.292,19.621H292.9l-1.418-3.477h-7.514l-1.39,3.477H276.9Zm8.652-7.68h4.369l-2.173-5.536-2.2,5.536Z" transform="translate(-255.02 -59.463)" fill="#06af9a"/>
      <path id="Path_16624" data-name="Path 16624" d="M318.01,86.564V67.08h15.583v4.729H323.408v3.311h9.213V79.6h-9.213v6.96h-5.4Z" transform="translate(-272.621 -59.566)" fill="#06af9a"/>
      <path id="Path_16625" data-name="Path 16625" d="M349.76,86.564V67.08h15.669v4.592H355.107v2.951h9.35v4.26h-9.35v3.088h10.465v4.592H349.766Z" transform="translate(-286.214 -59.566)" fill="#06af9a"/>
      <path id="Path_16626" data-name="Path 16626" d="M396.336,81.4a13.092,13.092,0,0,1-9.728-3.946,13.306,13.306,0,0,1-3.889-9.71v-.074A13.475,13.475,0,0,1,396.565,53.94a14.65,14.65,0,0,1,10.471,4.095l-3.717,4.283a10.087,10.087,0,0,0-6.788-3,7.139,7.139,0,0,0-5.5,2.408,8.363,8.363,0,0,0-2.2,5.862v.074a8.544,8.544,0,0,0,2.179,5.919,7.1,7.1,0,0,0,5.519,2.43A10.35,10.35,0,0,0,403.5,72.9l3.717,3.757a15.15,15.15,0,0,1-4.552,3.454,14.554,14.554,0,0,1-6.336,1.287Z" transform="translate(-300.325 -53.94)" fill="#06af9a"/>
      <path id="Path_16627" data-name="Path 16627" d="M439.535,86.667a10.269,10.269,0,0,1-7.474-2.922,9.607,9.607,0,0,1-2.991-7.154v-.057a9.667,9.667,0,0,1,3.019-7.183,11.017,11.017,0,0,1,14.977-.029,9.616,9.616,0,0,1,2.991,7.154v.057a9.646,9.646,0,0,1-3.02,7.177,10.3,10.3,0,0,1-7.5,2.951Zm.057-4.872a4.65,4.65,0,0,0,3.591-1.561,5.164,5.164,0,0,0,1.361-3.649v-.057a5.313,5.313,0,0,0-1.418-3.717,4.665,4.665,0,0,0-3.591-1.544,4.581,4.581,0,0,0-3.551,1.515,5.283,5.283,0,0,0-1.378,3.689v.057A5.206,5.206,0,0,0,436,80.2a4.6,4.6,0,0,0,3.591,1.584Z" transform="translate(-320.168 -59.274)" fill="#06af9a"/>
      <path id="Path_16628" data-name="Path 16628" d="M470.56,86.564V67.08H475.6l8.018,10.3V67.08h5.341V86.564h-4.729l-8.321-10.688V86.564h-5.341Z" transform="translate(-337.931 -59.566)" fill="#06af9a"/>
      <path id="Path_16629" data-name="Path 16629" d="M509.19,86.564V67.08h5.038l8.018,10.3V67.08h5.341V86.564h-4.729l-8.321-10.688V86.564H509.2Z" transform="translate(-354.47 -59.566)" fill="#06af9a"/>
      <path id="Path_16630" data-name="Path 16630" d="M547.82,86.564V67.08h15.669v4.592H553.167v2.951h9.35v4.26h-9.35v3.088h10.465v4.592H547.826Z" transform="translate(-371.009 -59.566)" fill="#06af9a"/>
      <path id="Path_16631" data-name="Path 16631" d="M588.968,86.671A9.913,9.913,0,0,1,578.92,76.6v-.057a9.76,9.76,0,0,1,2.934-7.206,9.989,9.989,0,0,1,7.331-2.922,9.581,9.581,0,0,1,8.264,4.06l-4.066,3.145a5.369,5.369,0,0,0-4.26-2.282,4.276,4.276,0,0,0-3.328,1.487,5.322,5.322,0,0,0-1.321,3.66v.057a5.417,5.417,0,0,0,1.31,3.717,4.232,4.232,0,0,0,3.34,1.487,5.642,5.642,0,0,0,4.4-2.368l4.06,2.894a10.124,10.124,0,0,1-8.63,4.4Z" transform="translate(-384.323 -59.279)" fill="#06af9a"/>
      <path id="Path_16632" data-name="Path 16632" d="M619.754,86.568V71.819H613.91V67.09H631v4.729h-5.844V86.568Z" transform="translate(-399.304 -59.57)" fill="#06af9a"/>
    </g>
    <path id="Path_16633" data-name="Path 16633" d="M651.093,71.135h-.921V67.9H648.96V67.08h3.34V67.9h-1.212v3.237Zm4.129-.961h-.08L654.026,68.4v2.734h-.869V67.086h.972l1.064,1.71,1.064-1.71h.949v4.049h-.869V68.4l-1.115,1.773Z" transform="translate(-261.312 -6.088)" fill="#06af9a"/>
  </g>
</svg>
