<svg id="Group_19209" data-name="Group 19209" xmlns="http://www.w3.org/2000/svg" xmlns:xlink="http://www.w3.org/1999/xlink" width="838" height="1080" viewBox="0 0 838 1080">
  <defs>
    <clipPath id="clip-path">
      <rect id="Rectangle_34624203" data-name="Rectangle 34624203" width="838" height="1080" fill="#fff"/>
    </clipPath>
    <linearGradient id="linear-gradient" x1="0.129" x2="0.872" y2="1.059" gradientUnits="objectBoundingBox">
      <stop offset="0" stop-color="#ffd66b"/>
      <stop offset="1" stop-color="#35b4ad" stop-opacity="0.871"/>
    </linearGradient>
    <linearGradient id="linear-gradient-2" x1="0.129" y1="1" x2="0.872" y2="-0.059" xlink:href="#linear-gradient"/>
    <linearGradient id="linear-gradient-7" x1="0.871" y1="1" x2="0.128" y2="-0.059" xlink:href="#linear-gradient"/>
    <linearGradient id="linear-gradient-8" x1="0.871" x2="0.128" y2="1.059" xlink:href="#linear-gradient"/>
    <linearGradient id="linear-gradient-15" x1="0.5" x2="0.5" y2="1" gradientUnits="objectBoundingBox">
      <stop offset="0" stop-opacity="0"/>
      <stop offset="0.825" stop-opacity="0.6"/>
    </linearGradient>
  </defs>
  <rect id="Rectangle_34624202" data-name="Rectangle 34624202" width="838" height="1080" fill="#126f67"/>
  <g id="Rectangle_34624203-2" data-name="Rectangle 34624203" clip-path="url(#clip-path)">
    <g id="Group_2085663120" data-name="Group 2085663120" transform="translate(-86.675 -142.022)">
      <path id="Vector_21070" data-name="Vector 21070" d="M230.15,226.843V460.96C73.013,455.14,11.243,328.029,0,265.2V0C188.352,4.762,231.913,153.213,230.15,226.843Z" transform="translate(2.839 3.968)" fill="url(#linear-gradient)"/>
      <path id="Vector_21070-2" data-name="Vector 21070" d="M230.15,234.118V0C73.013,5.82,11.243,132.931,0,195.759v265.2C188.352,456.2,231.913,307.748,230.15,234.118Z" transform="translate(2.84 945.596)" fill="url(#linear-gradient-2)"/>
      <path id="Vector_21072" data-name="Vector 21072" d="M0,232.795C1.1,162.912,18.518,21.163,211.632,0H460.3C449.277,95.675,414,246.683,133.593,236.1Z" transform="translate(233.651 232.133)" fill="#13bba8"/>
      <path id="Vector_21072-2" data-name="Vector 21072" d="M0,3.834C1.1,73.717,18.518,215.466,211.632,236.629H460.3C449.277,140.954,414-10.054,133.593.528Z" transform="translate(233.65 941.761)" fill="#13bba8"/>
      <path id="Vector_21073" data-name="Vector 21073" d="M230.811,0V230.811C161.59,233.456,5.291,178.564,0,0Z" transform="translate(693.949 232.133)" fill="#35b4ad"/>
      <path id="Vector_21073-2" data-name="Vector 21073" d="M230.811,230.9V.09C161.59-2.555,5.291,52.337,0,230.9Z" transform="translate(693.948 947.489)" fill="#35b4ad"/>
      <path id="Vector_21076" data-name="Vector 21076" d="M205.864,0V207.024C144.125,209.384,4.719,159.265,0,0Z" transform="translate(717.371 662.806)" fill="#35b4ad"/>
      <path id="Vector_21076-2" data-name="Vector 21076" d="M215.544,216.841V.083C150.9-2.388,4.941,50.088,0,216.841Z" transform="translate(102.207 492.044)" fill="#35b4ad"/>
      <path id="Vector_21077" data-name="Vector 21077" d="M205.865,205.945V.081C144.125-2.279,4.719,46.68,0,205.945Z" transform="translate(923.278 457.591) rotate(90)" fill="url(#linear-gradient-2)"/>
      <path id="Vector_21077-2" data-name="Vector 21077" d="M215.544,0V215.544C150.9,218.015,4.941,166.753,0,0Z" transform="translate(102.167 923.749) rotate(-90)" fill="url(#linear-gradient)"/>
      <path id="Vector_21074" data-name="Vector 21074" d="M100.652,232.773c-55.743-7.38-88.522-58.843-97.944-83C-10.439,77.029,27.468,35.564,48.065,23.923,156.4-42.492,214.592,45.008,230.15,97.06V232.773Z" transform="translate(693.949 0)" fill="url(#linear-gradient)"/>
      <path id="Vector_21074-2" data-name="Vector 21074" d="M100.652,0C44.909,7.38,12.13,58.843,2.708,83c-13.147,72.741,24.76,114.207,45.357,125.847C156.4,275.265,214.592,187.765,230.15,135.713V0Z" transform="translate(693.948 1177.751)" fill="url(#linear-gradient-2)"/>
      <path id="Vector_21074-3" data-name="Vector 21074" d="M129.5,0c55.743,7.38,88.522,58.843,97.944,83,13.147,72.741-24.76,114.207-45.357,125.847C73.754,275.266,15.557,187.766,0,135.713V0Z" transform="translate(223.071 20.959)" fill="url(#linear-gradient-7)"/>
      <path id="Vector_21074-4" data-name="Vector 21074" d="M129.5,232.773c55.743-7.38,88.522-58.843,97.944-83,13.147-72.741-24.76-114.207-45.357-125.847C73.754-42.493,15.557,45.008,0,97.06V232.773Z" transform="translate(223.071 1156.791)" fill="url(#linear-gradient-8)"/>
      <path id="Vector_21075" data-name="Vector 21075" d="M89.465,0V113.091H.2C-4.028,42.723,58.381,8.377,89.465,0Z" transform="translate(923.277 119.042)" fill="url(#linear-gradient)"/>
      <path id="Vector_21075-2" data-name="Vector 21075" d="M89.465,113.091V0H.2C-4.028,70.368,58.381,104.714,89.465,113.091Z" transform="translate(923.278 1178.391)" fill="url(#linear-gradient-2)"/>
      <path id="Vector_21077-3" data-name="Vector 21077" d="M230.811,230.9V.09C161.59-2.555,5.291,52.337,0,230.9Z" transform="translate(924.1 693.782) rotate(-90)" fill="url(#linear-gradient-2)"/>
      <path id="Vector_21077-4" data-name="Vector 21077" d="M230.811,0V230.811C161.59,233.456,5.291,178.564,0,0Z" transform="translate(1155.001 797.622) rotate(90)" fill="url(#linear-gradient)"/>
      <ellipse id="Ellipse_3721" data-name="Ellipse 3721" cx="35.392" cy="35.392" rx="35.392" ry="35.392" transform="translate(642.364 412.682)" fill="url(#linear-gradient)"/>
      <ellipse id="Ellipse_3721-2" data-name="Ellipse 3721" cx="37.056" cy="37.056" rx="37.056" ry="37.056" transform="translate(23.672 896.658)" fill="url(#linear-gradient-2)"/>
    </g>
    <g id="Group_17421" data-name="Group 17421" transform="translate(29.396)">
      <circle id="Ellipse_3720" data-name="Ellipse 3720" cx="205.605" cy="205.605" r="205.605" transform="translate(184 355)" fill="#0c786c"/>
    </g>
  </g>
  <rect id="Rectangle_34624204" data-name="Rectangle 34624204" width="838" height="1080" fill="url(#linear-gradient-15)"/>
</svg>
