<svg id="open-eye_1" data-name="open-eye 1" xmlns="http://www.w3.org/2000/svg" width="29.758" height="24" viewBox="0 0 29.758 24">
  <path id="open-eye_1_Background_Mask_" data-name="open-eye 1 (Background/Mask)" d="M0,0H29.367V24H0Z" transform="translate(0.047)" fill="none"/>
  <g id="Group" transform="translate(0 0)">
    <path id="Vector" d="M14.878,22.273a13.427,13.427,0,0,1-7.886-2.665A22.951,22.951,0,0,1,.446,11.932L0,11.136l.446-.795a24.231,24.231,0,0,1,6.6-7.676A13.263,13.263,0,0,1,14.878,0a13.265,13.265,0,0,1,7.83,2.665,24.229,24.229,0,0,1,6.6,7.676l.446.795-.446.8a24.229,24.229,0,0,1-6.6,7.676A13.265,13.265,0,0,1,14.878,22.273Zm0-19.091c-4.143,0-8.159,2.825-11.307,7.954,3.148,5.129,7.164,7.955,11.307,7.955s8.16-2.825,11.309-7.955C23.039,6.007,19.023,3.182,14.878,3.182Z" fill="#577284"/>
    <path id="Vector-2" data-name="Vector" d="M4.709,9.417A4.709,4.709,0,1,1,9.417,4.709,4.709,4.709,0,0,1,4.709,9.417Z" transform="translate(10.17 6.427)" fill="#577284"/>
  </g>
</svg>
